<svg height="533pt" preserveAspectRatio="xMidYMid meet" viewBox="0 0 533 533" width="533pt" xmlns="http://www.w3.org/2000/svg"><g transform="matrix(.1 0 0 -.1 0 533)"><path d="m2414 4200c-279-17-398-63-581-224-64-57-132-86-200-86-43 0-137 32-227 77-78 39-169 53-219 34-37-14-60-70-59-143 0-84 44-172 131-262 67-68 70-74 81-139 15-98 27-117 86-143 45-20 54-29 69-69 24-60 16-191-19-335-40-163-33-280 25-432 17-42 52-111 80-153 27-42 49-77 49-78s-154-2-343-3c-280 0-356-3-422-17-92-19-119-38-93-63 14-14 23-15 60-6 100 25 286 35 572 29 222-4 291-8 297-18 4-8 7-14 6-15-1-2-90-7-198-14-192-10-321-26-406-49-35-10-43-16-43-35 0-32 19-37 77-20 69 21 260 41 465 50 171 6 177 6 204-15 24-19 25-21 6-21-111 0-560-50-685-75-146-31-194-55-181-90 8-19 17-18 134 14 136 37 423 72 705 87 113 6 132 5 144-9 15-19 20-18-167-42-196-25-362-68-362-94 0-5 7-16 15-25 14-13 20-13 58 0 83 30 480 94 494 80 3-3 9-40 14-83 11-112 19-141 50-203 46-91 115-148 200-164 25-4 45-18 67-45l31-39-25-23c-40-37-116-157-112-176 2-10 13-19 25-21 17-3 27 6 42 35 10 21 43 64 73 96l53 58 42-17 41-16-13-37c-7-20-16-55-19-78-6-35-5-43 12-52 25-13 37 0 47 49 4 19 13 49 20 67l13 32h136c93 0 138-4 143-12 4-7 15-39 24-72 14-52 19-60 40-60 22 0 24 4 21 41-1 23-8 60-16 82l-14 40 41 16 41 16 34-33c18-17 52-60 75-95 31-47 47-62 62-60 11 2 21 11 23 22 4 20-71 136-112 175l-25 23 31 39c22 27 42 41 67 45 147 27 249 184 251 386 0 31 4 59 9 62 23 15 364-39 484-76 58-18 70-19 78-7 17 26 4 43-43 61-64 24-227 55-371 71-64 8-120 17-123 20-4 3 6 12 20 19 22 9 71 8 249-5 122-10 240-20 262-23 143-18 264-39 353-62 89-22 105-24 112-12 16 25 12 30-32 50-91 39-343 80-628 100-85 6-170 14-188 16l-33 5 24 19c23 18 35 19 239 10 226-10 323-21 425-46 34-9 67-13 73-9 20 13 10 45-17 56-85 32-325 59-526 59h-111l21 21c21 21 29 21 359 23 236 0 363-3 419-12 154-26 152-25 158-8 11 29-4 45-56 56-108 23-266 31-532 28-151-2-275-1-275 1s20 34 45 71c84 127 135 286 135 422 0 35-12 108-25 163-32 125-42 284-23 340 12 33 23 44 65 64 60 28 78 55 93 144 12 65 15 71 84 141 88 89 127 163 134 257 4 57 1 73-18 107-25 44-41 52-114 52-38 0-74-11-159-50-60-28-132-56-159-61-98-21-179 7-283 100-128 114-226 160-400 186-117 17-488 26-661 15zm523-60c243-19 350-58 488-180 44-39 96-80 115-90 55-28 140-41 206-30 32 5 59 8 61 6 6-6-141-74-184-86-56-14-191 2-282 35-81 30-97 31-106 8-4-12 1-24 15-35 21-17 138-58 166-58 25 0 135-72 188-123 61-61 95-121 105-186 5-41 9-46 31-46 23 0 25 3 25 50-1 70-41 148-114 220-61 60-64 75-14 75 31 0 231 104 333 173 108 72 144 84 165 54s19-86-6-153c-16-41-41-78-94-133-84-89-89-96-105-176-16-79-24-92-59-100-116-25-144-241-65-509 18-64 18-174-1-256-20-87-104-253-158-314l-43-49-87-5c-88-5-113-15-101-45 4-12 22-17 66-19l60-3-70-52c-38-29-78-53-89-53-18 0-19 4-12 48 8 49 21 86 41 114 10 14 10 21-3 33-8 9-23 13-32 9-20-7-54-76-62-124-13-74-15-79-38-82-31-4-31-52 1-56 27-4 29-28 2-35-25-6-26-43-2-56 16-9 17-18 10-103-14-158-78-262-180-293-60-17-215-20-271-4-70 19-137 96-137 156 0 22 9 34 45 56 62 40 87 74 80 108-6 25 0 32 57 74 77 57 88 70 88 111 0 23-8 39-27 54-24 19-28 19-42 5-13-12-13-19-3-35 19-31 16-36-48-81-72-50-94-81-86-119 5-25 0-32-43-59-26-17-51-31-55-31s-27 14-52 30c-37 26-44 36-44 63 0 43-19 68-90 118-58 40-71 61-50 74 16 10 12 42-7 49-22 9-63-31-63-60 0-36 19-69 52-88 16-10 45-32 64-48 27-24 33-35 28-54-8-33 14-64 75-103 56-36 62-55 37-114-36-86-131-124-292-114-111 6-149 21-199 79-51 57-74 121-83 232-7 79-6 88 10 97 24 13 23 50-2 56-26 7-26 33 0 33 21 0 40 27 33 48-3 6-15 12-28 12-20 0-24 6-30 53-8 60-34 126-58 145-22 18-50 12-57-13-5-19-10-20-98-11l-93 8-45 57c-57 71-129 217-148 301-23 95-20 193 9 312 52 213 44 352-25 420-21 21-47 38-58 38-26 0-36 19-52 95-17 82-27 100-108 180-51 53-74 85-90 128-27 70-28 127-4 156 24 30 55 19 177-63 124-83 267-156 323-163 23-3 42-7 42-8s-28-31-62-67c-74-75-110-142-116-215-4-42-1-54 12-59 24-9 46 14 46 50 1 51 36 114 102 180 74 74 137 112 215 133 102 26 153 53 153 78 0 32-17 35-75 12-120-47-241-62-323-41-48 13-177 73-170 79 2 2 31-1 65-7 49-7 76-6 125 7 72 18 111 42 200 121 162 144 297 178 733 182 94 1 225-3 292-8zm-998-1957c7-15 15-49 18-75 5-45 4-48-17-48-19 0-148 95-149 110-1 3 24 3 55 2 49-4 56-2 61 17 7 28 17 26 32-6zm827-709c36-21 62-27 131-32l87-5-30-24c-36-29-116-61-121-48-2 6-12 25-23 43-21 35-41 40-60 17-10-12-9-20 4-40 9-13 16-29 16-35s-39-10-105-10c-58 0-105 2-105 5 0 4 7 20 16 36 34 67-21 84-58 19-26-46-42-47-115-4-63 37-62 44 9 44 92 1 164 29 213 83l40 45 28-34c16-19 49-46 73-60z"/><path d="m2113 3464c-6-16 15-86 46-154 17-36 48-51 61-29 8 12-41 162-62 186-15 18-37 16-45-3z"/><path d="m3172 3468c-6-8-25-49-41-93-28-71-29-81-16-95 11-11 20-12 32-4 19 12 75 151 71 179-4 24-30 31-46 13z"/><path d="m2316 3448c-3-13-7-52-8-87-2-51 0-66 14-74 31-20 42 6 43 96 0 77-1 82-22 85-16 2-24-3-27-20z"/><path d="m2956 3462c-8-13 9-161 20-172 6-6 18-8 27-4 13 5 17 19 17 64 0 91-9 120-36 120-12 0-25-4-28-8z"/><path d="m1903 3403c-25-9-12-37 59-125 54-66 77-88 92-86 40 6 27 41-47 127-73 86-82 93-104 84z"/><path d="m3380 3388c-12-13-46-53-77-90-56-69-64-101-28-106 15-2 39 21 93 87 74 91 84 114 56 125-22 8-21 9-44-16z"/><path d="m2072 3111c-50-31 66-100 222-131 108-21 141-41 154-94 6-24 14-31 33-31 31 0 37 40 14 84-25 50-85 82-188 102-73 13-163 45-217 76-3 1-11-1-18-6z"/><path d="m3198 3089c-32-17-83-35-115-41-159-30-223-65-242-135-12-44-5-63 23-63 18 0 25 9 35 40 16 53 50 74 154 93 93 17 180 48 217 77 20 15 23 23 14 36-16 26-24 25-86-7z"/><path d="m1863 3063c-27-10-12-42 31-68l44-26-5-58c-8-85 16-148 76-205 65-59 138-83 214-66 54 11 137 54 137 70 0 6 5 10 11 10 8 0 9-22 4-75-6-65-4-76 10-81 10-4 24 0 33 10 14 13 17 37 17 119 0 113-9 139-67 194-43 42-84 58-195 77-96 17-204 52-258 86-18 11-34 20-36 19-2 0-10-3-16-6zm171-133c20-7 26-16 26-40 0-74 56-125 127-117 49 5 80 28 98 70l12 29 29-26 29-25-20-38c-40-75-125-106-212-77-85 28-133 94-133 184 0 53 3 56 44 40zm171-35c30-6 32-25 5-50-24-22-65-14-80 16-17 30-5 51 25 44 14-3 36-7 50-10z"/><path d="m3371 3030c-67-34-110-47-283-80-72-14-137-57-168-112-22-38-25-55-25-145 0-82 3-106 17-119 9-10 23-14 33-10 14 5 16 16 10 82l-8 76 49-35c90-64 177-71 274-22 90 45 136 133 127 241l-5 63 45 27c34 19 43 31 41 47-4 32-25 30-107-13zm-36-153c0-46-6-64-30-98-75-106-235-111-302-10-29 43-29 47 4 77l28 26 12-31c45-110 215-76 215 43 0 29 5 37 27 45 40 15 46 8 46-52zm-135 11c0-26-27-58-50-58s-54 36-47 54c3 8 21 16 39 19 18 2 39 5 46 5 6 1 12-8 12-20z"/><path d="m1817 2643c-18-17-3-42 42-72 55-35 109-101 118-143 7-34 27-52 49-44 13 5 15 15 11 48-7 54-48 111-122 170-56 45-83 57-98 41z"/><path d="m3434 2616c-80-54-144-143-144-201 0-53 53-40 65 15 8 35 82 120 130 150 37 23 46 54 19 64-9 3-16 6-17 6s-25-15-53-34z"/><path d="m2495 2550c-10-16 14-107 42-164 27-53 108-146 128-146s100 94 125 145c28 57 50 142 43 161-11 28-47 11-56-26-17-68-39-115-75-164l-36-49-28 34c-36 42-67 106-82 167-9 35-17 48-33 50-12 2-24-2-28-8z"/><path d="m2183 2378c-56-87-76-153-64-210 13-55 51-109 76-106 25 4 31 34 12 56-47 53-36 127 32 232 45 69 48 93 14 98-18 3-32-11-70-70z"/><path d="m3054 2435c-4-9 11-42 34-78 79-120 86-170 36-238-18-24-21-36-13-50 14-26 26-24 59 12 72 80 59 192-39 327-32 43-66 55-77 27z"/><path d="m3011 2076c-7-8-12-25-11-38 5-51-1-71-30-100-49-49-35-90 22-62 54 28 93 133 66 183-16 31-31 36-47 17z"/><path d="m2271 2061c-26-48 4-142 58-180 60-43 82-3 31 56-16 18-31 41-31 51-1 9-2 33-3 52-1 28-5 36-23 38-14 2-26-4-32-17z"/><path d="m2503 2043c-41-16 24-87 104-114 64-21 170 8 217 60 40 44-8 77-54 37-62-51-136-52-209-2-20 14-39 26-42 25-2 0-10-3-16-6z"/><path d="m2148 1879c-28-16-23-57 8-71 23-11 29-10 45 11 17 21 18 26 6 45-17 25-35 30-59 15z"/><path d="m3126 1868c-27-38 12-81 53-58 27 14 28 56 2 70-28 15-38 13-55-12z"/><path d="m2304 1776c-3-8-4-25-2-38 2-18 9-23 32-23 36 0 56 27 40 53-14 22-62 28-70 8z"/><path d="m2954 1765c-7-29 10-55 36-55 24 0 42 24 38 52-2 18-10 24-35 26-28 3-33-1-39-23z"/><path d="m2155 1720c-17-18-17-21-1-45 19-29 38-32 60-9 22 21 20 51-3 64-27 14-35 13-56-10z"/><path d="m3110 1725c-7-8-10-25-6-39 12-48 76-41 76 8 0 42-45 62-70 31z"/><path d="m2436 1707c-38-27 2-95 42-71 24 16 28 55 6 71-10 7-21 13-24 13s-14-6-24-13z"/><path d="m2846 1707c-22-16-18-55 7-71 39-24 79 44 41 71-10 7-21 13-24 13s-14-6-24-13z"/><path d="m2272 1628c-33-33 1-78 48-63 37 12 20 75-20 75-9 0-21-5-28-12z"/><path d="m3002 1631c-8-4-12-21-10-37 2-25 7-29 32-29 36 0 56 27 40 53-13 19-43 26-62 13z"/></g></svg>